<?xml version="1.0" encoding="us-ascii" standalone="no"?><svg xmlns="http://www.w3.org/2000/svg" xmlns:xlink="http://www.w3.org/1999/xlink" contentStyleType="text/css" height="295px" preserveAspectRatio="none" style="width:710px;height:295px;background:#FFFFFF;" version="1.1" viewBox="0 0 710 295" width="710px" zoomAndPan="magnify"><defs/><g><!--entity DataBase_System--><g id="elem_DataBase_System"><path d="M231.4868,22.6857 C234.5547,13.5564 241.9909,13.6225 247.5811,20.0817 C253.1771,11.4798 259.3495,9.5313 265.836,19.1914 C269.1509,10.9916 275.5107,10.747 280.4951,17.5614 C285.2634,9.4166 290.0808,7.2473 296.9707,15.4193 C301.9773,7.6435 310.4464,6 315.4899,15.3794 C321.6717,7.7079 326.7628,7.7919 331.6415,16.6526 C336.6163,7.0056 342.9902,6.5661 349.1393,15.5496 C354.1903,8.358 361.0134,6.7752 366.0518,15.5628 C371.0724,6.5443 377.536,6.3687 382.725,15.4074 C387.8485,8.9258 393.5843,10.6102 396.5013,17.6547 C401.1528,8.1829 409.1046,9.7867 414.4383,16.9176 C421.3141,10.8466 427.2019,10.0503 431.6985,19.5542 C437.4531,12.2815 443.4673,11.4125 449.4249,19.3172 C458.9587,11.2515 467.3429,14.5321 470,26.4112 C472.1595,26.1268 472.9692,27.212 472.1415,29.2118 C479.8906,34.5927 482.0293,39.8294 473.4313,46.4346 C484.3388,48.5298 484.5033,57.8573 478.4512,64.6311 C486.5503,71.6241 484.747,79.1587 474.2864,81.5953 C480.5115,93.8606 476.4384,101.5562 463,103.8487 C464.0455,103.4311 464.7227,103.7554 464.8681,104.9148 C460.2377,114.2017 452.2929,113.8812 446.7194,105.9064 C442.8587,113.4278 437.8663,114.2732 431.4215,108.9948 C425.8525,116.9326 418.8428,116.1656 415.053,107.2652 C410.6955,115.9564 402.4989,116.2552 396.5053,109.1914 C392.9685,115.4389 386.5031,117.1622 382.0066,110.2486 C377.392,118.7899 368.2142,118.1025 363.3263,110.5661 C359.9139,118.8579 351.8639,119.9698 346.9168,112.127 C341.3979,120.2879 333.2565,118.5344 330.0345,109.8281 C325.8266,117.1869 320.8785,118.156 315.2897,111.2561 C308.648,117.3118 303.2987,118.3807 299.0726,108.7576 C293.7166,116.0347 288.0928,115.2357 283.2135,108.2283 C278.0769,117.7085 270.7368,117.9989 265.3855,108.4291 C260.2434,116.7041 253.4918,115.4759 248.9397,107.8201 C236.7925,115.5687 225.2827,112.423 223,96.8487 C224.6696,96.6918 225.8578,97.5111 225.0947,99.3729 C214.9432,94.9838 216.078,87.8143 223.1115,81.5165 C212.5072,79.2488 210.3161,71.0336 217.1886,63.1347 C209.3699,56.0941 212.0012,50.0258 220.3748,45.9952 C211.0105,32.1682 215.9686,24.7674 230,19.4112 C231.7907,19.6793 232.4271,21.1776 231.4868,22.6857 " fill="#ADD8E6" style="stroke:#181818;stroke-width:0.5;"/><text fill="#000000" font-family="sans-serif" font-size="14" font-weight="bold" lengthAdjust="spacing" textLength="225" x="230" y="40.9444">Database System (Cloud server)</text><text fill="#000000" font-family="sans-serif" font-size="14" lengthAdjust="spacing" textLength="211" x="230" y="58.5538">Central system with the main goal</text><text fill="#000000" font-family="sans-serif" font-size="14" lengthAdjust="spacing" textLength="233" x="230" y="76.1632">to gather all the data (working hours)</text><text fill="#000000" font-family="sans-serif" font-size="14" lengthAdjust="spacing" textLength="95" x="230" y="93.7725">From all clients</text></g><!--entity Timelink_mobile--><g id="elem_Timelink_mobile"><rect fill="#B7C9E2" height="118.0469" rx="2.5" ry="2.5" style="stroke:#181818;stroke-width:0.5;" width="313" x="7" y="171.4112"/><rect fill="#B7C9E2" height="10" style="stroke:#181818;stroke-width:0.5;" width="15" x="300" y="176.4112"/><rect fill="#B7C9E2" height="2" style="stroke:#181818;stroke-width:0.5;" width="4" x="298" y="178.4112"/><rect fill="#B7C9E2" height="2" style="stroke:#181818;stroke-width:0.5;" width="4" x="298" y="182.4112"/><text fill="#000000" font-family="sans-serif" font-size="14" font-weight="bold" lengthAdjust="spacing" textLength="109" x="22" y="205.9444">Timelink mobile</text><text fill="#000000" font-family="sans-serif" font-size="14" lengthAdjust="spacing" textLength="187" x="22" y="223.5538">Mobile application component</text><text fill="#000000" font-family="sans-serif" font-size="14" lengthAdjust="spacing" textLength="4" x="22" y="241.1632">&#160;</text><text fill="#000000" font-family="sans-serif" font-size="14" lengthAdjust="spacing" textLength="273" x="22" y="258.7725">Simple application where all employees can</text><text fill="#000000" font-family="sans-serif" font-size="14" lengthAdjust="spacing" textLength="179" x="22" y="276.3819">manage their working hours.</text></g><!--entity Timelink_admin--><g id="elem_Timelink_admin"><rect fill="#536878" height="82.8281" rx="2.5" ry="2.5" style="stroke:#FFFFFF;stroke-width:0.5;" width="349" x="355" y="188.9112"/><rect fill="#536878" height="10" style="stroke:#FFFFFF;stroke-width:0.5;" width="15" x="684" y="193.9112"/><rect fill="#536878" height="2" style="stroke:#FFFFFF;stroke-width:0.5;" width="4" x="682" y="195.9112"/><rect fill="#536878" height="2" style="stroke:#FFFFFF;stroke-width:0.5;" width="4" x="682" y="199.9112"/><text fill="#FFFFFF" font-family="sans-serif" font-size="14" font-weight="bold" lengthAdjust="spacing" textLength="104" x="370" y="223.4444">Timelink admin</text><text fill="#FFFFFF" font-family="sans-serif" font-size="14" lengthAdjust="spacing" textLength="309" x="370" y="241.0538">Administrator web application allowing to manage</text><text fill="#FFFFFF" font-family="sans-serif" font-size="14" lengthAdjust="spacing" textLength="260" x="370" y="258.6632">users, working places and working hours.</text></g><!--link DataBase_System to Timelink_admin--><g id="link_DataBase_System_Timelink_admin"><path codeLine="19" d="M400.42,111.6112 C427.3,136.1512 459.43,165.4612 484.9,188.7112 " fill="none" id="DataBase_System-Timelink_admin" style="stroke:#181818;stroke-width:1.0;"/></g><!--link DataBase_System to Timelink_mobile--><g id="link_DataBase_System_Timelink_mobile"><path codeLine="20" d="M292.58,111.6112 C272.13,130.2812 248.64,151.7112 227.36,171.1312 " fill="none" id="DataBase_System-Timelink_mobile" style="stroke:#181818;stroke-width:1.0;"/></g><!--SRC=[VP5FJy904CNl-oacuGADUD0eA2T1FUa94m_4aA6Tj1FsJxExjVBjdMwH133iORFTzsRwUxEvTaq1pnXnZe7Mors8P63mncKLvxgXbSgoJjs82djrk4X5WVmt-L6MgGNPw553wFMMOmMn8Z385ag7MaK79SgL1zGwQOKqXM7h_9Pj2PLhV1YfL-zCSkIQfMTGNoftfdPMFk233McssxLn6zO4W_bayV1oir8WAyl-PEXbmUhkttilrhNc72Cx2uUEoP2s9PlwnDKAB2KM4itjY0BaQ9FTeCMIkXZiuIZ2zV_4M1YPnE3kzduwcSuY_SJ7pueZpKIb_dWM8zNiKpnrPmuovEZaZxGvGXL8rtO8CkKUBHKrya3Xwi1NQymb0zhY7Fdq_SVZ4_QBZdxWlm00]--></g></svg>