<?xml version="1.0" encoding="us-ascii" standalone="no"?><svg xmlns="http://www.w3.org/2000/svg" xmlns:xlink="http://www.w3.org/1999/xlink" contentStyleType="text/css" height="434px" preserveAspectRatio="none" style="width:957px;height:434px;background:#FFFFFF;" version="1.1" viewBox="0 0 957 434" width="957px" zoomAndPan="magnify"><defs/><g><!--cluster DataBase_System--><g id="cluster_DataBase_System"><rect fill="#ADD8E6" height="411" rx="2.5" ry="2.5" style="stroke:#181818;stroke-width:1.0;" width="349" x="7" y="7"/><rect fill="#ADD8E6" height="10" style="stroke:#181818;stroke-width:1.0;" width="15" x="336" y="12"/><rect fill="#ADD8E6" height="2" style="stroke:#181818;stroke-width:1.0;" width="4" x="334" y="14"/><rect fill="#ADD8E6" height="2" style="stroke:#181818;stroke-width:1.0;" width="4" x="334" y="18"/><text fill="#000000" font-family="sans-serif" font-size="14" font-weight="bold" lengthAdjust="spacing" textLength="124" x="119.5" y="34.5332">DataBase_System</text></g><!--cluster SpringBootApplication--><g id="cluster_SpringBootApplication"><rect fill="none" height="343" rx="2.5" ry="2.5" style="stroke:#181818;stroke-width:1.0;" width="173" x="159" y="51"/><rect fill="none" height="10" style="stroke:#181818;stroke-width:1.0;" width="15" x="312" y="56"/><rect fill="none" height="2" style="stroke:#181818;stroke-width:1.0;" width="4" x="310" y="58"/><rect fill="none" height="2" style="stroke:#181818;stroke-width:1.0;" width="4" x="310" y="62"/><text fill="#000000" font-family="sans-serif" font-size="14" font-weight="bold" lengthAdjust="spacing" textLength="157" x="167" y="78.5332">SpringBootApplication</text></g><!--cluster Timelink_mobile--><g id="cluster_Timelink_mobile"><rect fill="#B7C9E2" height="186" rx="2.5" ry="2.5" style="stroke:#181818;stroke-width:1.0;" width="445" x="506" y="8"/><rect fill="#B7C9E2" height="10" style="stroke:#181818;stroke-width:1.0;" width="15" x="931" y="13"/><rect fill="#B7C9E2" height="2" style="stroke:#181818;stroke-width:1.0;" width="4" x="929" y="15"/><rect fill="#B7C9E2" height="2" style="stroke:#181818;stroke-width:1.0;" width="4" x="929" y="19"/><text fill="#000000" font-family="sans-serif" font-size="14" font-weight="bold" lengthAdjust="spacing" textLength="113" x="672" y="35.5332">Timelink_mobile</text></g><!--cluster Timelink_admin--><g id="cluster_Timelink_admin"><rect fill="#536878" height="168" rx="2.5" ry="2.5" style="stroke:#FFFFFF;stroke-width:1.0;" width="417" x="388" y="260"/><rect fill="#536878" height="10" style="stroke:#FFFFFF;stroke-width:1.0;" width="15" x="785" y="265"/><rect fill="#536878" height="2" style="stroke:#FFFFFF;stroke-width:1.0;" width="4" x="783" y="267"/><rect fill="#536878" height="2" style="stroke:#FFFFFF;stroke-width:1.0;" width="4" x="783" y="271"/><text fill="#FFFFFF" font-family="sans-serif" font-size="14" font-weight="bold" lengthAdjust="spacing" textLength="108" x="542.5" y="287.5332">Timelink_admin</text></g><!--entity SQL_Database--><g id="elem_SQL_Database"><path d="M23.5,340.5 C23.5,330.5 82,330.5 82,330.5 C82,330.5 140.5,330.5 140.5,340.5 L140.5,367.1094 C140.5,377.1094 82,377.1094 82,377.1094 C82,377.1094 23.5,377.1094 23.5,367.1094 L23.5,340.5 " fill="#F1F1F1" style="stroke:#181818;stroke-width:0.5;"/><path d="M23.5,340.5 C23.5,350.5 82,350.5 82,350.5 C82,350.5 140.5,350.5 140.5,340.5 " fill="none" style="stroke:#181818;stroke-width:0.5;"/><text fill="#000000" font-family="sans-serif" font-size="14" lengthAdjust="spacing" textLength="97" x="33.5" y="369.0332">SQL_Database</text></g><!--entity REST_API--><g id="elem_REST_API"><rect fill="#F1F1F1" height="47.6094" rx="2.5" ry="2.5" style="stroke:#181818;stroke-width:0.5;" width="106" x="202" y="87"/><rect fill="#F1F1F1" height="10" style="stroke:#181818;stroke-width:0.5;" width="15" x="288" y="92"/><rect fill="#F1F1F1" height="2" style="stroke:#181818;stroke-width:0.5;" width="4" x="286" y="94"/><rect fill="#F1F1F1" height="2" style="stroke:#181818;stroke-width:0.5;" width="4" x="286" y="98"/><text fill="#000000" font-family="sans-serif" font-size="14" lengthAdjust="spacing" textLength="66" x="217" y="121.5332">REST_API</text></g><!--entity Back_end_logic--><g id="elem_Back_end_logic"><rect fill="#F1F1F1" height="47.6094" rx="2.5" ry="2.5" style="stroke:#181818;stroke-width:0.5;" width="140" x="176" y="330"/><rect fill="#F1F1F1" height="10" style="stroke:#181818;stroke-width:0.5;" width="15" x="296" y="335"/><rect fill="#F1F1F1" height="2" style="stroke:#181818;stroke-width:0.5;" width="4" x="294" y="337"/><rect fill="#F1F1F1" height="2" style="stroke:#181818;stroke-width:0.5;" width="4" x="294" y="341"/><text fill="#000000" font-family="sans-serif" font-size="14" lengthAdjust="spacing" textLength="100" x="191" y="364.5332">Back_end_logic</text></g><!--entity React_based_application--><g id="elem_React_based_application"><rect fill="#F1F1F1" height="118.0469" rx="2.5" ry="2.5" style="stroke:#181818;stroke-width:0.5;" width="377" x="549.5" y="52"/><rect fill="#F1F1F1" height="10" style="stroke:#181818;stroke-width:0.5;" width="15" x="906.5" y="57"/><rect fill="#F1F1F1" height="2" style="stroke:#181818;stroke-width:0.5;" width="4" x="904.5" y="59"/><rect fill="#F1F1F1" height="2" style="stroke:#181818;stroke-width:0.5;" width="4" x="904.5" y="63"/><text fill="#000000" font-family="sans-serif" font-size="14" font-weight="bold" lengthAdjust="spacing" textLength="168" x="564.5" y="86.5332">React based application</text><text fill="#000000" font-family="sans-serif" font-size="14" lengthAdjust="spacing" textLength="4" x="564.5" y="104.1426">&#160;</text><text fill="#000000" font-family="sans-serif" font-size="14" lengthAdjust="spacing" textLength="232" x="564.5" y="121.752">- Usage of some external libraries for</text><text fill="#000000" font-family="sans-serif" font-size="14" lengthAdjust="spacing" textLength="123" x="564.5" y="139.3613">creation of charters</text><text fill="#000000" font-family="sans-serif" font-size="14" lengthAdjust="spacing" textLength="305" x="564.5" y="156.9707">- Usage of some libraries for API_communication</text></g><!--entity React_web_application--><g id="elem_React_web_application"><rect fill="#F1F1F1" height="100.4375" rx="2.5" ry="2.5" style="stroke:#181818;stroke-width:0.5;" width="349" x="431.5" y="304"/><rect fill="#F1F1F1" height="10" style="stroke:#181818;stroke-width:0.5;" width="15" x="760.5" y="309"/><rect fill="#F1F1F1" height="2" style="stroke:#181818;stroke-width:0.5;" width="4" x="758.5" y="311"/><rect fill="#F1F1F1" height="2" style="stroke:#181818;stroke-width:0.5;" width="4" x="758.5" y="315"/><text fill="#000000" font-family="sans-serif" font-size="14" font-weight="bold" lengthAdjust="spacing" textLength="167" x="446.5" y="338.5332">React admin application</text><text fill="#000000" font-family="sans-serif" font-size="14" lengthAdjust="spacing" textLength="232" x="446.5" y="356.1426">- Usage of some external libraries for</text><text fill="#000000" font-family="sans-serif" font-size="14" lengthAdjust="spacing" textLength="123" x="446.5" y="373.752">creation of charters</text><text fill="#000000" font-family="sans-serif" font-size="14" lengthAdjust="spacing" textLength="305" x="446.5" y="391.3613">- Usage of some libraries for API_communication</text></g><!--link REST_API to Back_end_logic--><g id="link_REST_API_Back_end_logic"><path d="M254.14,135.11 C252.42,181.17 248.58,283.95 246.86,329.96 " fill="none" id="REST_API-Back_end_logic" style="stroke:#181818;stroke-width:2.0;"/></g><!--link SQL_Database to Back_end_logic--><g id="link_SQL_Database_Back_end_logic"><path d="M140.62,354 C152.28,354 163.94,354 175.61,354 " fill="none" id="SQL_Database-Back_end_logic" style="stroke:#181818;stroke-width:2.0;"/></g><!--link REST_API to Timelink_admin--><g id="link_REST_API_Timelink_admin"><path d="M271.5498,140.2888 C288.9198,169.9788 317.0425,218.0475 344.2025,264.4713 C357.7825,287.6831 370.3644,309.1891 379.7263,325.1914 C382.0667,329.192 384.2059,332.8486 386.1092,336.1019 C386.585,336.9152 387.0461,337.7033 387.4918,338.4653 C387.6033,338.6558 384.684,333.6658 384.7936,333.853 " fill="none" id="REST_API-Timelink_admin" style="stroke:#181818;stroke-width:1.0;"/><polygon fill="#181818" points="268.52,135.11,269.6122,144.8981,271.0449,139.4257,276.5173,140.8583,268.52,135.11" style="stroke:#181818;stroke-width:1.0;"/><polygon fill="#181818" points="387.8233,339.0319,386.7313,329.2438,385.2985,334.7162,379.8261,333.2834,387.8233,339.0319" style="stroke:#181818;stroke-width:1.0;"/><text fill="#000000" font-family="sans-serif" font-size="13" lengthAdjust="spacing" textLength="176" x="326" y="232.4951">HTTPS secure communication</text></g><!--link REST_API to Timelink_mobile--><g id="link_REST_API_Timelink_mobile"><path d="M314.04,111 C350.74,111 394.21,111 435.4675,111 C456.0962,111 474.6719,111 488.5716,111 C495.5214,111 501.3023,111 505.5863,111 C505.7202,111 499.8526,111 499.9835,111 " fill="none" id="REST_API-Timelink_mobile" style="stroke:#181818;stroke-width:1.0;"/><polygon fill="#181818" points="308.04,111,317.04,115,313.04,111,317.04,107,308.04,111" style="stroke:#181818;stroke-width:1.0;"/><polygon fill="#181818" points="505.9835,111,496.9835,107,500.9835,111,496.9835,115,505.9835,111" style="stroke:#181818;stroke-width:1.0;"/><text fill="#000000" font-family="sans-serif" font-size="13" lengthAdjust="spacing" textLength="169" x="326.32" y="104.4951">HTTP/HTTPS communication</text></g><!--SRC=[pP9HIyCm58NV-oikxAqm14KtDoUiRg2mXxbMV109QNhNXJL9IJ9KPF_TjDtQTMu-suVIz7xdSEuXJ8bSIPGM9jJIW1eauPUnAA0pu-dA1ja6lprm3wl9CDTSfe5ITfpd6MVKSYKhg0qkfc54nlEd4wE0iZL1cP1CfPnvDR6Nm6Xqp1JZRVbENDJOHONmUKOckqFbSVW7HhfOuPVHrlEQ814Nc76v9aB5F4Fe1Bs7s-dbySuBfCoImZKXjDdwhGxk-oK29G87YEytstNXnT0KGIt1A860dnQrf1baFDPKSpImLBgfIsDfKV1iHRM3pLclbWMu2ebBBpPo5sClA_NlPpgWYU0IEjTND_rUVsXTlC7hYbiSkYbMdwUB-S3uxregvtOj_w6Lfexwvjrrk_V7bGpWCOhc8HXa6utGycX9onjtgDzTgyhWed9foty0]--></g></svg>