<?xml version="1.0" encoding="us-ascii" standalone="no"?><svg xmlns="http://www.w3.org/2000/svg" xmlns:xlink="http://www.w3.org/1999/xlink" contentStyleType="text/css" height="372px" preserveAspectRatio="none" style="width:1239px;height:372px;background:#FFFFFF;" version="1.1" viewBox="0 0 1239 372" width="1239px" zoomAndPan="magnify"><defs/><g><!--cluster Client Apps--><g id="cluster_Client Apps"><path d="M215.5,50 L296.5,50 A3.75,3.75 0 0 1 299,52.5 L306,73.6094 L372.5,73.6094 A2.5,2.5 0 0 1 375,76.1094 L375,164.5 A2.5,2.5 0 0 1 372.5,167 L215.5,167 A2.5,2.5 0 0 1 213,164.5 L213,52.5 A2.5,2.5 0 0 1 215.5,50 " fill="#B7C9E2" style="stroke:#000000;stroke-width:1.5;"/><line style="stroke:#000000;stroke-width:1.5;" x1="213" x2="306" y1="73.6094" y2="73.6094"/><text fill="#000000" font-family="sans-serif" font-size="14" font-weight="bold" lengthAdjust="spacing" textLength="80" x="217" y="66.5332">Client Apps</text></g><!--cluster Backend Services--><g id="cluster_Backend Services"><path d="M401.5,6 L529.5,6 A3.75,3.75 0 0 1 532,8.5 L539,29.6094 L1229.5,29.6094 A2.5,2.5 0 0 1 1232,32.1094 L1232,362.5 A2.5,2.5 0 0 1 1229.5,365 L401.5,365 A2.5,2.5 0 0 1 399,362.5 L399,8.5 A2.5,2.5 0 0 1 401.5,6 " fill="#ADD8E6" style="stroke:#000000;stroke-width:1.5;"/><line style="stroke:#000000;stroke-width:1.5;" x1="399" x2="539" y1="29.6094" y2="29.6094"/><text fill="#000000" font-family="sans-serif" font-size="14" font-weight="bold" lengthAdjust="spacing" textLength="127" x="403" y="22.5332">Backend Services</text></g><!--cluster SpringBootApplication--><g id="cluster_SpringBootApplication"><rect fill="none" height="291" rx="2.5" ry="2.5" style="stroke:#181818;stroke-width:1.0;" width="505" x="703" y="50"/><rect fill="none" height="10" style="stroke:#181818;stroke-width:1.0;" width="15" x="1188" y="55"/><rect fill="none" height="2" style="stroke:#181818;stroke-width:1.0;" width="4" x="1186" y="57"/><rect fill="none" height="2" style="stroke:#181818;stroke-width:1.0;" width="4" x="1186" y="61"/><text fill="#000000" font-family="sans-serif" font-size="14" font-weight="bold" lengthAdjust="spacing" textLength="157" x="877" y="77.5332">SpringBootApplication</text></g><!--entity Mobile--><g id="elem_Mobile"><rect fill="#F1F1F1" height="65.2188" rx="2.5" ry="2.5" style="stroke:#181818;stroke-width:0.5;" width="130" x="229" y="86"/><rect fill="#F1F1F1" height="10" style="stroke:#181818;stroke-width:0.5;" width="15" x="339" y="91"/><rect fill="#F1F1F1" height="2" style="stroke:#181818;stroke-width:0.5;" width="4" x="337" y="93"/><rect fill="#F1F1F1" height="2" style="stroke:#181818;stroke-width:0.5;" width="4" x="337" y="97"/><text fill="#000000" font-family="sans-serif" font-size="14" lengthAdjust="spacing" textLength="70" x="244" y="120.5332">Mobile App</text><text fill="#000000" font-family="sans-serif" font-size="14" lengthAdjust="spacing" textLength="90" x="244" y="138.1426">(Clock Button)</text></g><!--entity DB--><g id="elem_DB"><path d="M415.5,270.5 C415.5,260.5 551,260.5 551,260.5 C551,260.5 686.5,260.5 686.5,270.5 L686.5,314.7188 C686.5,324.7188 551,324.7188 551,324.7188 C551,324.7188 415.5,324.7188 415.5,314.7188 L415.5,270.5 " fill="#F1F1F1" style="stroke:#181818;stroke-width:0.5;"/><path d="M415.5,270.5 C415.5,280.5 551,280.5 551,280.5 C551,280.5 686.5,280.5 686.5,270.5 " fill="none" style="stroke:#181818;stroke-width:0.5;"/><text fill="#000000" font-family="sans-serif" font-size="14" lengthAdjust="spacing" textLength="107" x="425.5" y="299.0332">TimeRecords DB</text><text fill="#000000" font-family="sans-serif" font-size="14" lengthAdjust="spacing" textLength="251" x="425.5" y="316.6426">(Employees, Departments, TimeEntries)</text></g><!--entity API--><g id="elem_API"><rect fill="#F1F1F1" height="65.2188" rx="2.5" ry="2.5" style="stroke:#181818;stroke-width:0.5;" width="120" x="719" y="86"/><rect fill="#F1F1F1" height="10" style="stroke:#181818;stroke-width:0.5;" width="15" x="819" y="91"/><rect fill="#F1F1F1" height="2" style="stroke:#181818;stroke-width:0.5;" width="4" x="817" y="93"/><rect fill="#F1F1F1" height="2" style="stroke:#181818;stroke-width:0.5;" width="4" x="817" y="97"/><text fill="#000000" font-family="sans-serif" font-size="14" lengthAdjust="spacing" textLength="80" x="734" y="120.5332">API Gateway</text><text fill="#000000" font-family="sans-serif" font-size="14" lengthAdjust="spacing" textLength="72" x="734" y="138.1426">(REST API)</text></g><!--entity Auth--><g id="elem_Auth"><rect fill="#F1F1F1" height="65.2188" rx="2.5" ry="2.5" style="stroke:#181818;stroke-width:0.5;" width="131" x="1060.5" y="86"/><rect fill="#F1F1F1" height="10" style="stroke:#181818;stroke-width:0.5;" width="15" x="1171.5" y="91"/><rect fill="#F1F1F1" height="2" style="stroke:#181818;stroke-width:0.5;" width="4" x="1169.5" y="93"/><rect fill="#F1F1F1" height="2" style="stroke:#181818;stroke-width:0.5;" width="4" x="1169.5" y="97"/><text fill="#000000" font-family="sans-serif" font-size="14" lengthAdjust="spacing" textLength="80" x="1075.5" y="120.5332">Auth Service</text><text fill="#000000" font-family="sans-serif" font-size="14" lengthAdjust="spacing" textLength="91" x="1075.5" y="138.1426">(Token / SSO)</text></g><!--entity TimeService--><g id="elem_TimeService"><rect fill="#F1F1F1" height="65.2188" rx="2.5" ry="2.5" style="stroke:#181818;stroke-width:0.5;" width="181" x="804.5" y="260"/><rect fill="#F1F1F1" height="10" style="stroke:#181818;stroke-width:0.5;" width="15" x="965.5" y="265"/><rect fill="#F1F1F1" height="2" style="stroke:#181818;stroke-width:0.5;" width="4" x="963.5" y="267"/><rect fill="#F1F1F1" height="2" style="stroke:#181818;stroke-width:0.5;" width="4" x="963.5" y="271"/><text fill="#000000" font-family="sans-serif" font-size="14" lengthAdjust="spacing" textLength="141" x="819.5" y="294.5332">Time Tracking Service</text><text fill="#000000" font-family="sans-serif" font-size="14" lengthAdjust="spacing" textLength="121" x="819.5" y="312.1426">(Validate &amp; Persist)</text></g><!--entity Employee--><g id="elem_Employee"><ellipse cx="37" cy="79.5" fill="#F1F1F1" rx="8" ry="8" style="stroke:#181818;stroke-width:0.5;"/><path d="M37,87.5 L37,114.5 M24,95.5 L50,95.5 M37,114.5 L24,129.5 M37,114.5 L50,129.5 " fill="none" style="stroke:#181818;stroke-width:0.5;"/><text fill="#000000" font-family="sans-serif" font-size="14" lengthAdjust="spacing" textLength="62" x="6" y="145.5332">Employee</text><text fill="#000000" font-family="sans-serif" font-size="14" lengthAdjust="spacing" textLength="51" x="6" y="163.1426">(mobile)</text></g><!--link Employee to Mobile--><g id="link_Employee_Mobile"><path d="M68,118.5 C107.65,118.5 171.35,118.5 222.89,118.5 " fill="none" id="Employee-to-Mobile" style="stroke:#181818;stroke-width:1.0;"/><polygon fill="#181818" points="228.89,118.5,219.89,114.5,223.89,118.5,219.89,122.5,228.89,118.5" style="stroke:#181818;stroke-width:1.0;"/><text fill="#000000" font-family="sans-serif" font-size="13" font-weight="bold" lengthAdjust="spacing" textLength="11" x="86.5" y="111.9951">1.</text><text fill="#000000" font-family="sans-serif" font-size="13" lengthAdjust="spacing" textLength="113" x="97.5" y="111.9951">Press Clock Button</text></g><!--link Mobile to API--><g id="link_Mobile_API"><path d="M359.16,118.5 C453.58,118.5 621.15,118.5 712.74,118.5 " fill="none" id="Mobile-to-API" style="stroke:#181818;stroke-width:1.0;"/><polygon fill="#181818" points="718.74,118.5,709.74,114.5,713.74,118.5,709.74,122.5,718.74,118.5" style="stroke:#181818;stroke-width:1.0;"/><text fill="#000000" font-family="sans-serif" font-size="13" font-weight="bold" lengthAdjust="spacing" textLength="11" x="386" y="111.9951">2.</text><text fill="#000000" font-family="sans-serif" font-size="13" lengthAdjust="spacing" textLength="295" x="397" y="111.9951">POST /clock {employeeId, timestamp, geolocation}</text></g><!--reverse link Mobile to API--><g id="link_Mobile_API"><path d="M365.043,128.6998 C423.083,136.0098 504.42,143.51 580.5,139.5 C627.05,137.04 679.47,131.37 718.76,126.54 " fill="none" id="Mobile-backto-API" style="stroke:#181818;stroke-width:1.0;"/><polygon fill="#181818" points="359.09,127.95,367.5196,133.0433,364.0508,128.5748,368.5193,125.106,359.09,127.95" style="stroke:#181818;stroke-width:1.0;"/><text fill="#000000" font-family="sans-serif" font-size="13" font-weight="bold" lengthAdjust="spacing" textLength="11" x="498.5" y="135.9951">9.</text><text fill="#000000" font-family="sans-serif" font-size="13" lengthAdjust="spacing" textLength="70" x="509.5" y="135.9951">201 Created</text></g><!--link API to Auth--><g id="link_API_Auth"><path d="M839.05,118.5 C900.83,118.5 990.79,118.5 1054.5,118.5 " fill="none" id="API-to-Auth" style="stroke:#181818;stroke-width:1.0;"/><polygon fill="#181818" points="1060.5,118.5,1051.5,114.5,1055.5,118.5,1051.5,122.5,1060.5,118.5" style="stroke:#181818;stroke-width:1.0;"/><text fill="#000000" font-family="sans-serif" font-size="13" font-weight="bold" lengthAdjust="spacing" textLength="11" x="857.25" y="111.9951">3.</text><text fill="#000000" font-family="sans-serif" font-size="13" lengthAdjust="spacing" textLength="174" x="868.25" y="111.9951">Authenticate / authorize token</text></g><!--reverse link API to Auth--><g id="link_API_Auth"><path d="M845.1002,131.6641 C865.7902,135.2841 883.24,137.72 904.75,139.5 C944.61,142.81 954.88,142.67 994.75,139.5 C1016.26,137.79 1039.56,134.53 1060.48,131.08 " fill="none" id="API-backto-Auth" style="stroke:#181818;stroke-width:1.0;"/><polygon fill="#181818" points="839.19,130.63,847.3659,136.1213,844.1152,131.4917,848.7447,128.241,839.19,130.63" style="stroke:#181818;stroke-width:1.0;"/><text fill="#000000" font-family="sans-serif" font-size="13" font-weight="bold" lengthAdjust="spacing" textLength="11" x="905.75" y="135.9951">4.</text><text fill="#000000" font-family="sans-serif" font-size="13" lengthAdjust="spacing" textLength="77" x="916.75" y="135.9951">200 OK / 401</text></g><!--link API to TimeService--><g id="link_API_TimeService"><path d="M763.69,151.42 C754.84,174.88 748.1,206.62 763,230 C769.18,239.7 782.183,247.8079 803.413,257.4079 " fill="none" id="API-to-TimeService" style="stroke:#181818;stroke-width:1.0;"/><polygon fill="#181818" points="808.88,259.88,802.3275,252.5271,804.3241,257.8199,799.0313,259.8165,808.88,259.88" style="stroke:#181818;stroke-width:1.0;"/><text fill="#000000" font-family="sans-serif" font-size="13" font-weight="bold" lengthAdjust="spacing" textLength="11" x="764" y="210.4951">5.</text><text fill="#000000" font-family="sans-serif" font-size="13" lengthAdjust="spacing" textLength="97" x="775" y="210.4951">CreateTimeEntry</text><text fill="#000000" font-family="sans-serif" font-size="13" lengthAdjust="spacing" textLength="86" x="775" y="226.8467">(payload, user)</text></g><!--reverse link API to TimeService--><g id="link_API_TimeService"><path d="M838.1917,154.6174 C854.5717,166.6774 866.22,178.3 877,196 C888.67,215.16 893.08,240.19 894.61,259.82 " fill="none" id="API-backto-TimeService" style="stroke:#181818;stroke-width:1.0;"/><polygon fill="#181818" points="833.36,151.06,838.2359,159.6172,837.3864,154.0245,842.9791,153.175,833.36,151.06" style="stroke:#181818;stroke-width:1.0;"/><text fill="#000000" font-family="sans-serif" font-size="13" font-weight="bold" lengthAdjust="spacing" textLength="11" x="890" y="218.4951">8.</text><text fill="#000000" font-family="sans-serif" font-size="13" lengthAdjust="spacing" textLength="70" x="901" y="218.4951">201 Created</text></g><!--link TimeService to DB--><g id="link_TimeService_DB"><path d="M804.41,292.5 C768.48,292.5 732.4,292.5 692.96,292.5 " fill="none" id="TimeService-to-DB" style="stroke:#181818;stroke-width:1.0;"/><polygon fill="#181818" points="686.96,292.5,695.96,296.5,691.96,292.5,695.96,288.5,686.96,292.5" style="stroke:#181818;stroke-width:1.0;"/><text fill="#000000" font-family="sans-serif" font-size="13" font-weight="bold" lengthAdjust="spacing" textLength="11" x="685.5" y="285.9951">6.</text><text fill="#000000" font-family="sans-serif" font-size="13" lengthAdjust="spacing" textLength="109" x="696.5" y="285.9951">INSERT TimeEntry</text></g><!--link DB to TimeService--><g id="link_DB_TimeService"><path d="M686.75,313.18 C719.58,315.8 754.55,316.63 787,313.5 C792.7,312.95 792.6073,313.0673 798.4973,312.2473 " fill="none" id="DB-to-TimeService" style="stroke:#181818;stroke-width:1.0;"/><polygon fill="#181818" points="804.44,311.42,794.9744,308.6992,799.4878,312.1094,796.0775,316.6228,804.44,311.42" style="stroke:#181818;stroke-width:1.0;"/><text fill="#000000" font-family="sans-serif" font-size="13" font-weight="bold" lengthAdjust="spacing" textLength="11" x="705" y="309.9951">7.</text><text fill="#000000" font-family="sans-serif" font-size="13" lengthAdjust="spacing" textLength="70" x="716" y="309.9951">201 Created</text></g><!--SRC=[RLDTJnin47o_Nx5AfLAYfE6hfVIX4fT49G9Ab8JsfI_EtJPOtDckxGEbYF_UNVlkE29uY3XxPZoxioiohotqfgKfz1Rnj_fGwhKiSBy7ma5pdEo1YC3pl9GAHd2n8EWZhYCkd2Q94Tczs23qneL4vU7S6DU3T-df-6nwz9G0_MMwD5hnPUywFCGWaXeNEhk7jF9UgwWPhmDfhqkB3dxXkc4kRYTmEuiaEgRJvBdZ9QL_KEMmHFiWCsH3Lt9pvzEYmbrFIsEbsgHQUr8fP2Qyr2g2TioVpsVmNNXy55loi9WkLq17TJVcipSfbRzhN11dfSaMTNAvlAbfTFyMRoLBX9MbCiXRH-2dA6HE5k0zpD4wwNpKONoD2dBFuPUGOYqSHhq5Pjhc3YOf2JKfkm5Cq0ZhItgNFXWuLTvAT55vad9dzm1h0cIScWEfHhhoIQC3mszrUl0L-lt3Z_t-tA9pq0qvgH64vLuoy8Y1DzJ9KT25f-QTMJu0JsQS5wKPm0OrtOTidXCc3oq7oahSOfOw9Yd-e48uHQG-2_hKLlv3yDpv96271Vxn7Gidn3iwE82RIsAS71n6-Lm_AW9r6Xl0dmWyjaZoJQTu5epO5bgGuygXtK-wfDRd90q2dqbWzcCvNQpQNcyJkXk-yTXfS7O8yS7yjMvbEZLysK664kewEx6SxS0erx1Qeui5Q8CszDV1WnH0Umx260Yxjjy0ERguRwHtfJTI3U1QA5ww9ZX7iyd1WOtpHjIQqVeDwpl2bn4SCG7ZsF5JxBvDjfrvH_D4_aZVweAtGR2bu2taskftqZn-1Okw8OdWuQLckgr3Y19_AxHRAi5LXMyjTOj_3VWF]--></g></svg>