<?xml version="1.0" encoding="us-ascii" standalone="no"?><svg xmlns="http://www.w3.org/2000/svg" xmlns:xlink="http://www.w3.org/1999/xlink" contentStyleType="text/css" height="331px" preserveAspectRatio="none" style="width:1085px;height:331px;background:#FFFFFF;" version="1.1" viewBox="0 0 1085 331" width="1085px" zoomAndPan="magnify"><defs/><g><!--cluster Client Apps--><g id="cluster_Client Apps"><path d="M215.5,50 L296.5,50 A3.75,3.75 0 0 1 299,52.5 L306,73.6094 L384.5,73.6094 A2.5,2.5 0 0 1 387,76.1094 L387,164.5 A2.5,2.5 0 0 1 384.5,167 L215.5,167 A2.5,2.5 0 0 1 213,164.5 L213,52.5 A2.5,2.5 0 0 1 215.5,50 " fill="#536878" style="stroke:#000000;stroke-width:1.5;"/><line style="stroke:#000000;stroke-width:1.5;" x1="213" x2="306" y1="73.6094" y2="73.6094"/><text fill="#000000" font-family="sans-serif" font-size="14" font-weight="bold" lengthAdjust="spacing" textLength="80" x="217" y="66.5332">Client Apps</text></g><!--cluster Backend Services--><g id="cluster_Backend Services"><path d="M567.5,6 L695.5,6 A3.75,3.75 0 0 1 698,8.5 L705,29.6094 L1075.5,29.6094 A2.5,2.5 0 0 1 1078,32.1094 L1078,321.5 A2.5,2.5 0 0 1 1075.5,324 L567.5,324 A2.5,2.5 0 0 1 565,321.5 L565,8.5 A2.5,2.5 0 0 1 567.5,6 " fill="#ADD8E6" style="stroke:#000000;stroke-width:1.5;"/><line style="stroke:#000000;stroke-width:1.5;" x1="565" x2="705" y1="29.6094" y2="29.6094"/><text fill="#000000" font-family="sans-serif" font-size="14" font-weight="bold" lengthAdjust="spacing" textLength="127" x="569" y="22.5332">Backend Services</text></g><!--cluster SpringBootApplication--><g id="cluster_SpringBootApplication"><rect fill="none" height="117" rx="2.5" ry="2.5" style="stroke:#181818;stroke-width:1.0;" width="465" x="589" y="50"/><rect fill="none" height="10" style="stroke:#181818;stroke-width:1.0;" width="15" x="1034" y="55"/><rect fill="none" height="2" style="stroke:#181818;stroke-width:1.0;" width="4" x="1032" y="57"/><rect fill="none" height="2" style="stroke:#181818;stroke-width:1.0;" width="4" x="1032" y="61"/><text fill="#000000" font-family="sans-serif" font-size="14" font-weight="bold" lengthAdjust="spacing" textLength="157" x="743" y="77.5332">SpringBootApplication</text></g><!--entity WebApp--><g id="elem_WebApp"><rect fill="#F1F1F1" height="65.2188" rx="2.5" ry="2.5" style="stroke:#181818;stroke-width:0.5;" width="141" x="229.5" y="86"/><rect fill="#F1F1F1" height="10" style="stroke:#181818;stroke-width:0.5;" width="15" x="350.5" y="91"/><rect fill="#F1F1F1" height="2" style="stroke:#181818;stroke-width:0.5;" width="4" x="348.5" y="93"/><rect fill="#F1F1F1" height="2" style="stroke:#181818;stroke-width:0.5;" width="4" x="348.5" y="97"/><text fill="#000000" font-family="sans-serif" font-size="14" lengthAdjust="spacing" textLength="101" x="244.5" y="120.5332">Admin Web App</text><text fill="#000000" font-family="sans-serif" font-size="14" lengthAdjust="spacing" textLength="65" x="244.5" y="138.1426">(CRUD UI)</text></g><!--entity DB--><g id="elem_DB"><path d="M619.5,254 C619.5,244 755,244 755,244 C755,244 890.5,244 890.5,254 L890.5,298.2188 C890.5,308.2188 755,308.2188 755,308.2188 C755,308.2188 619.5,308.2188 619.5,298.2188 L619.5,254 " fill="#F1F1F1" style="stroke:#181818;stroke-width:0.5;"/><path d="M619.5,254 C619.5,264 755,264 755,264 C755,264 890.5,264 890.5,254 " fill="none" style="stroke:#181818;stroke-width:0.5;"/><text fill="#000000" font-family="sans-serif" font-size="14" lengthAdjust="spacing" textLength="107" x="629.5" y="282.5332">TimeRecords DB</text><text fill="#000000" font-family="sans-serif" font-size="14" lengthAdjust="spacing" textLength="251" x="629.5" y="300.1426">(Employees, Departments, TimeEntries)</text></g><!--entity API--><g id="elem_API"><rect fill="#F1F1F1" height="65.2188" rx="2.5" ry="2.5" style="stroke:#181818;stroke-width:0.5;" width="120" x="605" y="86"/><rect fill="#F1F1F1" height="10" style="stroke:#181818;stroke-width:0.5;" width="15" x="705" y="91"/><rect fill="#F1F1F1" height="2" style="stroke:#181818;stroke-width:0.5;" width="4" x="703" y="93"/><rect fill="#F1F1F1" height="2" style="stroke:#181818;stroke-width:0.5;" width="4" x="703" y="97"/><text fill="#000000" font-family="sans-serif" font-size="14" lengthAdjust="spacing" textLength="80" x="620" y="120.5332">API Gateway</text><text fill="#000000" font-family="sans-serif" font-size="14" lengthAdjust="spacing" textLength="72" x="620" y="138.1426">(REST API)</text></g><!--entity Auth--><g id="elem_Auth"><rect fill="#F1F1F1" height="65.2188" rx="2.5" ry="2.5" style="stroke:#181818;stroke-width:0.5;" width="131" x="906.5" y="86"/><rect fill="#F1F1F1" height="10" style="stroke:#181818;stroke-width:0.5;" width="15" x="1017.5" y="91"/><rect fill="#F1F1F1" height="2" style="stroke:#181818;stroke-width:0.5;" width="4" x="1015.5" y="93"/><rect fill="#F1F1F1" height="2" style="stroke:#181818;stroke-width:0.5;" width="4" x="1015.5" y="97"/><text fill="#000000" font-family="sans-serif" font-size="14" lengthAdjust="spacing" textLength="80" x="921.5" y="120.5332">Auth Service</text><text fill="#000000" font-family="sans-serif" font-size="14" lengthAdjust="spacing" textLength="91" x="921.5" y="138.1426">(Token / SSO)</text></g><!--entity Admin--><g id="elem_Admin"><ellipse cx="41" cy="79.5" fill="#F1F1F1" rx="8" ry="8" style="stroke:#181818;stroke-width:0.5;"/><path d="M41,87.5 L41,114.5 M28,95.5 L54,95.5 M41,114.5 L28,129.5 M41,114.5 L54,129.5 " fill="none" style="stroke:#181818;stroke-width:0.5;"/><text fill="#000000" font-family="sans-serif" font-size="14" lengthAdjust="spacing" textLength="70" x="6" y="145.5332">Admin / HR</text><text fill="#000000" font-family="sans-serif" font-size="14" lengthAdjust="spacing" textLength="35" x="6" y="163.1426">(web)</text></g><!--link Admin to WebApp--><g id="link_Admin_WebApp"><path d="M76.2,118.5 C115.41,118.5 173.81,118.5 223.49,118.5 " fill="none" id="Admin-to-WebApp" style="stroke:#181818;stroke-width:1.0;"/><polygon fill="#181818" points="229.49,118.5,220.49,114.5,224.49,118.5,220.49,122.5,229.49,118.5" style="stroke:#181818;stroke-width:1.0;"/><text fill="#000000" font-family="sans-serif" font-size="13" font-weight="bold" lengthAdjust="spacing" textLength="11" x="129.75" y="78.9951">1.</text><text fill="#000000" font-family="sans-serif" font-size="13" lengthAdjust="spacing" textLength="35" x="140.75" y="78.9951">Login,</text><text fill="#000000" font-family="sans-serif" font-size="13" lengthAdjust="spacing" textLength="117" x="94.25" y="95.3467">Manage employees,</text><text fill="#000000" font-family="sans-serif" font-size="13" lengthAdjust="spacing" textLength="72" x="118.75" y="111.6982">time records</text></g><!--link WebApp to API--><g id="link_WebApp_API"><path d="M370.81,118.5 C438.91,118.5 534.73,118.5 598.96,118.5 " fill="none" id="WebApp-to-API" style="stroke:#181818;stroke-width:1.0;"/><polygon fill="#181818" points="604.96,118.5,595.96,114.5,599.96,118.5,595.96,122.5,604.96,118.5" style="stroke:#181818;stroke-width:1.0;"/><text fill="#000000" font-family="sans-serif" font-size="13" font-weight="bold" lengthAdjust="spacing" textLength="11" x="388.75" y="111.9951">2.</text><text fill="#000000" font-family="sans-serif" font-size="13" lengthAdjust="spacing" textLength="187" x="399.75" y="111.9951">CRUD /employees, /time entries</text></g><!--reverse link WebApp to API--><g id="link_WebApp_API"><path d="M376.6325,131.8075 C399.8325,135.3175 419.85,137.76 443.75,139.5 C482.76,142.33 492.76,142.55 531.75,139.5 C555.8,137.62 582.07,133.85 604.87,130.02 " fill="none" id="WebApp-backto-API" style="stroke:#181818;stroke-width:1.0;"/><polygon fill="#181818" points="370.7,130.91,379.0004,136.2113,375.6437,131.658,380.1971,128.3013,370.7,130.91" style="stroke:#181818;stroke-width:1.0;"/><text fill="#000000" font-family="sans-serif" font-size="13" font-weight="bold" lengthAdjust="spacing" textLength="11" x="444.75" y="135.9951">7.</text><text fill="#000000" font-family="sans-serif" font-size="13" lengthAdjust="spacing" textLength="75" x="455.75" y="135.9951">query results</text></g><!--link API to Auth--><g id="link_API_Auth"><path d="M725.29,118.5 C777.41,118.5 846.62,118.5 900.27,118.5 " fill="none" id="API-to-Auth" style="stroke:#181818;stroke-width:1.0;"/><polygon fill="#181818" points="906.27,118.5,897.27,114.5,901.27,118.5,897.27,122.5,906.27,118.5" style="stroke:#181818;stroke-width:1.0;"/><text fill="#000000" font-family="sans-serif" font-size="13" font-weight="bold" lengthAdjust="spacing" textLength="11" x="743.25" y="95.9951">3.</text><text fill="#000000" font-family="sans-serif" font-size="13" lengthAdjust="spacing" textLength="134" x="754.25" y="95.9951">Validate session &amp; role</text><text fill="#000000" font-family="sans-serif" font-size="13" lengthAdjust="spacing" textLength="43" x="794.25" y="112.3467">(admin)</text></g><!--reverse link API to Auth--><g id="link_API_Auth"><path d="M730.7092,145.3456 C745.4092,150.3556 755.6,152.93 770.75,155.5 C810.18,162.2 821.26,161.89 860.75,155.5 C875.82,153.06 891.61,148.87 906.4,144.17 " fill="none" id="API-backto-Auth" style="stroke:#181818;stroke-width:1.0;"/><polygon fill="#181818" points="725.03,143.41,732.2585,150.0995,729.7627,145.023,734.8392,142.5272,725.03,143.41" style="stroke:#181818;stroke-width:1.0;"/><text fill="#000000" font-family="sans-serif" font-size="13" font-weight="bold" lengthAdjust="spacing" textLength="11" x="771.75" y="135.9951">4.</text><text fill="#000000" font-family="sans-serif" font-size="13" lengthAdjust="spacing" textLength="77" x="782.75" y="135.9951">200 OK / 403</text><text fill="#000000" font-family="sans-serif" font-size="13" lengthAdjust="spacing" textLength="43" x="794.25" y="152.3467">(admin)</text></g><!--link API to DB--><g id="link_API_DB"><path d="M643.16,151.39 C632.95,170.56 625.34,194.85 637,214 C644.37,226.11 650.0238,232.6076 661.9338,240.5276 " fill="none" id="API-to-DB" style="stroke:#181818;stroke-width:1.0;"/><polygon fill="#181818" points="666.93,243.85,661.6507,235.5356,662.7665,241.0813,657.2208,242.1972,666.93,243.85" style="stroke:#181818;stroke-width:1.0;"/><text fill="#000000" font-family="sans-serif" font-size="13" font-weight="bold" lengthAdjust="spacing" textLength="11" x="638" y="210.4951">5.</text><text fill="#000000" font-family="sans-serif" font-size="13" lengthAdjust="spacing" textLength="100" x="649" y="210.4951">CRUD operations</text></g><!--reverse link API to DB--><g id="link_API_DB"><path d="M720.8146,154.7815 C735.8146,166.8515 745.73,178.28 754,196 C760.85,210.67 761.59,228.6 760.41,243.67 " fill="none" id="API-backto-DB" style="stroke:#181818;stroke-width:1.0;"/><polygon fill="#181818" points="716.14,151.02,720.6442,159.7786,720.0355,154.1545,725.6595,153.5458,716.14,151.02" style="stroke:#181818;stroke-width:1.0;"/><text fill="#000000" font-family="sans-serif" font-size="13" font-weight="bold" lengthAdjust="spacing" textLength="11" x="760" y="210.4951">6.</text><text fill="#000000" font-family="sans-serif" font-size="13" lengthAdjust="spacing" textLength="75" x="771" y="210.4951">query results</text></g><!--SRC=[ZLDTJzj047pthrYbKYbHql0Le7seX4bKea8J9Q5zuULYRyC9-ywzEuDIn7_lxfrjJA1IUOZmtSpitCxk3eZ4QGETSLvaUeDuepxaUYKptEs0i50VHnNiBCsbWW5Sp0duWAk0ygTHL8ZaJgmHEkUPHENWh2Xi1zuD3uzFJquV8w2_7KXqNcZ5rvqhNuXX97QUwUGEuj8vhO9gkFQq5Yau-8chcZU_7i7r953ec4wZfvQNcFv1bS82pRrCa0rTolMjYxCI7xV45uMHQXrhxKWbaubmKgi0sdOncy1NuV11RCZ3VBnO0XrLtPXDtgIKxhPsGPob9blKoSLYMj7elk6zwDDIvWXBGmyXTos97oAJAPc0zp13OwLrGOdn5SeBFlbVGegLi1ZqvfXeareOnIHKfsnxCC9269TJNVfWu5Wv8z46vL7ClTq1h0YGS6eMf1heqj55hGJzBrL-y1cwtVsFtUxCeBNGZfdm5ORGt5667Z1qIlqSU6ruh6jDqXuuCcITo8iUh57JlK_eYOIOtZSSB6jngrdiaCJuWvx3QIBrMz2dDl8FWkC4cCheVeQ_NCl64J4FzlPW-equHtlxTObKFoY2jLhiuKE2dnka4dNFU2uAiScq8D-bHRDB4crQutOKUubZafXyNupdowRl6wBGRV-DWYVUtpw4ekcsTbcqtdBw2kkVKhsu5TEdBI0ZUTq65tFG1HhVRGltKW3jFeYY0Bz_kr7OokP9OG-Rw2_rMghUZReIYdSIct6xKJvIC64Qeuht76HhAFoY3vwvCF1K3FCP_Ni0cZMnD83q05eNepDU8C6koVn_3C1X2zwQWogxOUtlkKiH1_SY1WxuTubcGy-rPUOgprNTLijENW7_0W00]--></g></svg>